<svg version="1.2" xmlns="http://www.w3.org/2000/svg" viewBox="0 0 2048 2048" width="2048" height="2048"><style>.a{fill:#1a1a1a}.b{fill:#9a2100}.c{fill:#ffc107}.d{fill:#c03200}</style><path fill-rule="evenodd" class="a" d="m2048 0v2048h-2048v-2048z"/><path class="b" d="m278.7 1657.4l23.3-21.6c0 0 119.8-93.4 49-261.4-70.8-167.9-138.6-230.9-18-371.6 120.6-140.7 489-568 489-568 0 0 91.5-130.4 222-137 130.5-6.7 170.3 30.3 238 78 67.7 47.7 305.7 185.7 456 352 150.3 166.3 82.7 311.8-23 414-105.7 102.1-593 541-593 541 0 0-96.9 101.3-319 43-222.1-58.4-290.8-78.3-368-16-5.9 4.7-44.7 40.1-54.2 48.4m543.2-1030.2m0 0m218 178m0 0m222 182m0 0"/><path class="c" d="m802 380.8c0 0 91.5-130.4 222-137 130.5-6.7 170.3 30.3 238 78 67.7 47.7 307.7 216.7 458 383 150.3 166.3 80.7 280.8-25 383-105.7 102.1-593 541-593 541 0 0-96.9 101.3-319 43-222.1-58.4-290.8-78.3-368-16-11.3 9.1-72.4 66.9-72.4 66.9l-102.4-101.1 41.7-36.6c0 0 92.9-74.3 22.1-242.2-70.8-168-111.6-253.3 9-394 120.6-140.7 489-568 489-568zm152 151.2c0 0 52-75.8 114-24 62 51.8-52 140.2-92 182-40 41.8-386 410-386 410 0 0-70 76.2-122 36-52-40.2-18-79.8 32-134 50-54.2 454-470 454-470zm-50 140m0 0m268 38c0 0 52-75.8 114-24 62 51.8-52 140.2-92 182-40 41.8-386 410-386 410 0 0-70 76.2-122 36-52-40.2-18-79.8 32-134 50-54.2 454-470 454-470zm-50 140m0 0m272 42c0 0 52-75.8 114-24 62 51.8-52 140.2-92 182-40 41.8-386 410-386 410 0 0-70 76.2-122 36-52-40.2-18-79.8 32-134 50-54.2 454-470 454-470zm-50 140m0 0"/><path fill-rule="evenodd" class="d" d="m500 1002c-50 54.2-84 93.8-32 134 52 40.2 122-36 122-36 0 0 346-368.2 386-410 40-41.8 154-130.2 92-182-62-51.8-114 24-114 24 0 0-404 415.8-454 470zm218 178c-50 54.2-84 93.8-32 134 52 40.2 122-36 122-36 0 0 346-368.2 386-410 40-41.8 154-130.2 92-182-62-51.8-114 24-114 24 0 0-404 415.8-454 470zm222 182c-50 54.2-84 93.8-32 134 52 40.2 122-36 122-36 0 0 346-368.2 386-410 40-41.8 154-130.2 92-182-62-51.8-114 24-114 24 0 0-404 415.8-454 470z"/></svg>